<svg width="26" height="26" xmlns="http://www.w3.org/2000/svg"><path d="M18.104 25.99c.116.005.226.01.341.01 1.233 0 2.26-.444 3.068-1.317l.021-.02c.289-.346.614-.66.96-.989.236-.224.477-.454.703-.695 1.075-1.118 1.07-2.535-.01-3.611l-2.99-2.98c-.514-.532-1.128-.815-1.778-.815-.645 0-1.264.277-1.794.805l-1.767 1.762c-.157-.09-.32-.168-.477-.246-.2-.1-.383-.194-.546-.293-1.62-1.024-3.089-2.362-4.494-4.082-.708-.888-1.175-1.63-1.505-2.394A29.88 29.88 0 0 0 9.141 9.85c.152-.151.305-.308.462-.465 1.122-1.118 1.122-2.503 0-3.617L8.119 4.29c-.173-.172-.341-.345-.509-.512-.33-.334-.671-.685-1.012-.998C6.084 2.267 5.475 2 4.83 2c-.64 0-1.258.267-1.793.779l-1.862 1.85A3.862 3.862 0 0 0 .02 7.091c-.094 1.191.126 2.456.692 3.982.876 2.357 2.193 4.547 4.144 6.889 2.375 2.822 5.228 5.054 8.49 6.627 1.243.59 2.906 1.28 4.757 1.4zM5.848 17.14c-1.857-2.226-3.1-4.296-3.923-6.512-.509-1.364-.698-2.425-.62-3.434.059-.653.31-1.197.782-1.662L3.94 3.688c.283-.272.592-.413.897-.413.299 0 .592.141.875.419.331.308.65.632.987.972.167.172.34.35.519.522L8.7 6.668c.608.606.608 1.201 0 1.808-.157.156-.315.313-.467.47-.461.465-.891.904-1.369 1.328l-.026.026c-.425.423-.362.83-.257 1.134.005.016.01.026.016.042.383.92.923 1.792 1.752 2.838 1.494 1.834 3.068 3.261 4.809 4.364.215.136.44.25.66.36.2.1.384.194.546.293.02.01.037.021.058.031.167.084.33.126.498.126.414 0 .676-.262.76-.35l1.862-1.856c.283-.282.588-.428.886-.428.368 0 .667.23.86.428l3 2.99c.735.732.4 1.39-.015 1.824-.21.225-.43.434-.66.658-.352.335-.714.685-1.045 1.077-.566.606-1.237.889-2.113.889-.084 0-.173-.006-.257-.01-1.631-.105-3.142-.738-4.28-1.276-3.104-1.49-5.816-3.606-8.071-6.293zM14.69 6.008a.592.592 0 0 0-.198 1.167A6.5 6.5 0 0 1 18 8.995a6.492 6.492 0 0 1 1.82 3.511c.048.29.3.494.585.494a.588.588 0 0 0 .586-.693 7.656 7.656 0 0 0-2.149-4.15 7.663 7.663 0 0 0-4.152-2.149zM25.357 12a.635.635 0 0 0 .633-.748 13.638 13.638 0 0 0-3.837-7.405C20.114 1.813 17.558.485 14.746.009a.64.64 0 0 0-.215 1.26 12.392 12.392 0 0 1 6.713 3.483 12.4 12.4 0 0 1 3.48 6.715.64.64 0 0 0 .633.533z" fill="#5A6ECC" fill-rule="evenodd"/></svg>