<svg xmlns="http://www.w3.org/2000/svg" viewBox="0 0 272.067 272.067"><path d="M225.302 77.289L156.49 8.471l-.289-.283a28.798 28.798 0 0 0-4.107-3.31c-.617-.411-1.253-.746-1.896-1.073l-.88-.469c-.713-.405-1.433-.797-2.249-1.138-.803-.328-1.62-.566-2.436-.797l-.951-.283a15.47 15.47 0 0 0-1.999-.553A29.092 29.092 0 0 0 135.976 0c-1.87.006-3.76.199-5.604.566-.72.141-1.42.36-2.108.585l-.816.244c-.835.231-1.671.476-2.468.803-.79.328-1.536.733-2.275 1.15l-.906.482c-.63.321-1.247.649-1.8 1.022a29.105 29.105 0 0 0-3.605 2.847l-69.635 69.59c-5.463 5.463-8.471 12.719-8.471 20.45s3.008 14.987 8.471 20.45c5.463 5.469 12.719 8.471 20.45 8.471s14.987-3.008 20.45-8.471l19.454-19.454v144.411c0 15.951 12.976 28.921 28.921 28.921 15.951 0 28.921-12.969 28.921-28.921V98.742l19.454 19.441c5.463 5.469 12.719 8.471 20.45 8.471 7.719 0 14.987-3.008 20.45-8.464 5.463-5.456 8.471-12.719 8.471-20.45s-3.021-14.982-8.478-20.451zm-9.087 31.813c-3.04 3.04-7.07 4.704-11.363 4.704s-8.336-1.671-11.363-4.704l-41.395-41.389v175.433c0 8.863-7.204 16.067-16.067 16.067s-16.067-7.204-16.067-16.067V67.7l-41.395 41.395c-3.04 3.04-7.07 4.704-11.363 4.704s-8.323-1.671-11.363-4.704c-6.08-6.073-6.067-16.646 0-22.719l68.439-68.446.508-.476c.707-.694 1.472-1.337 2.796-2.14l1.472-.791c.27-.148.527-.321.835-.443.308-.122.63-.199.945-.283l2.044-.623a16.65 16.65 0 0 1 3.143-.321c1.015 0 2.076.109 3.599.463l1.581.476c.341.096.675.174.938.283.289.122.553.283.829.437l1.986 1.048a16.807 16.807 0 0 1 2.449 2.005l68.812 68.819c6.073 6.072 6.06 16.651 0 22.718z"/></svg>