<svg width="15" height="20" xmlns="http://www.w3.org/2000/svg"><g fill="#5A6ECC"><ellipse cx="7.031" cy="2.381" rx="1" ry="1"/><path d="M15 4.615c0-.85-.672-1.538-1.5-1.538h-2.082a2.238 2.238 0 0 0-1.045-.68 1.046 1.046 0 0 1-.71-.728C9.393.705 8.526 0 7.5 0 6.473 0 5.608.705 5.337 1.669a1.048 1.048 0 0 1-.711.729c-.41.12-.766.363-1.044.679H1.5c-.828 0-1.5.689-1.5 1.538v13.847C0 19.312.672 20 1.5 20h12c.828 0 1.5-.689 1.5-1.538V4.615zM3.75 4.603c.005-.676.45-1.28 1.083-1.466A1.803 1.803 0 0 0 6.058 1.88 1.512 1.512 0 0 1 7.5.77c.665 0 1.258.457 1.442 1.112a1.8 1.8 0 0 0 1.224 1.256 1.54 1.54 0 0 1 1.084 1.478v.77h-7.5v-.782zm9.75 14.628h-12a.76.76 0 0 1-.75-.77V4.616a.76.76 0 0 1 .75-.769h1.629a2.353 2.353 0 0 0-.129.75v1.558h9v-1.54c0-.27-.046-.528-.13-.769h1.63a.76.76 0 0 1 .75.77v13.846a.76.76 0 0 1-.75.769z"/><path d="M5.625 8.571h6.563v1H5.625zm0 1.905h6.563v1H5.625zm0 2.857h6.563v1H5.625zm0 1.905h6.563v1H5.625z"/><ellipse cx="3.281" cy="9.048" rx="1" ry="1"/><ellipse cx="3.281" cy="10.952" rx="1" ry="1"/><ellipse cx="3.281" cy="13.81" rx="1" ry="1"/><ellipse cx="3.281" cy="15.714" rx="1" ry="1"/></g></svg>