<svg width="22" height="25" xmlns="http://www.w3.org/2000/svg"><g fill="none"><path d="M4.714 0C3.85 0 3.143.703 3.143 1.563v21.875c0 .859.707 1.562 1.571 1.562H20.43c.864 0 1.571-.703 1.571-1.563V6.25L15.714 0h-11z" fill="#E2E5E7"/><path d="M17.286 6.25H22L15.714 0v4.688c0 .859.707 1.562 1.572 1.562z" fill="#B0B7BD"/><path fill="#CAD1D8" d="M22 10.938L17.286 6.25H22z"/><path d="M18.857 20.313c0 .43-.353.78-.786.78H.786a.786.786 0 0 1-.786-.78V12.5c0-.43.354-.781.786-.781H18.07c.433 0 .786.351.786.781v7.813z" fill="#50BEE8"/><path d="M2.975 18.75c-.208 0-.434-.113-.434-.388v-3.547c0-.225.226-.388.434-.388h1.438c2.871 0 2.808 4.323.056 4.323H2.975zm.396-3.56v2.797h1.042c1.697 0 1.771-2.798 0-2.798H3.371zm6.254 3.622c-1.162.05-2.369-.718-2.369-2.249 0-1.536 1.206-2.292 2.369-2.292 1.1.056 2.249.812 2.249 2.292 0 1.482-1.15 2.25-2.249 2.25zm-.07-3.728c-.703 0-1.47.493-1.47 1.48 0 .981.768 1.481 1.47 1.481.724 0 1.496-.5 1.496-1.48 0-.988-.772-1.481-1.495-1.481zm3.058 1.473c0-1.205.76-2.242 2.206-2.242.546 0 .98.162 1.438.556.17.156.189.43.02.606a.429.429 0 0 1-.58-.02c-.256-.268-.52-.342-.878-.342-.968 0-1.432.681-1.432 1.443 0 .775.458 1.487 1.432 1.487.358 0 .691-.145.98-.4a.423.423 0 0 1 .578.075c.1.137.15.368-.07.586-.44.407-.967.489-1.49.489-1.519 0-2.204-1.033-2.204-2.238z" fill="#FFF"/><path d="M17.929 20.781H3v.782h14.929a.786.786 0 0 0 .785-.782V20c0 .43-.353.781-.785.781z" fill="#CAD1D8"/></g></svg>