<svg width="16" height="16" xmlns="http://www.w3.org/2000/svg"><g fill="#BFBFBF"><path d="M8 0C3.589 0 0 3.589 0 8s3.589 8 8 8c4.41 0 8-3.589 8-8s-3.59-8-8-8zm0 14.95A6.959 6.959 0 0 1 1.05 8 6.958 6.958 0 0 1 8 1.05 6.959 6.959 0 0 1 14.95 8 6.959 6.959 0 0 1 8 14.95z"/><path d="M10.619 5.381a.524.524 0 0 0-.742 0L8 7.258 6.123 5.381a.524.524 0 1 0-.742.742L7.258 8 5.38 9.877a.524.524 0 1 0 .742.742L8 8.742l1.877 1.877a.523.523 0 0 0 .742 0 .524.524 0 0 0 0-.742L8.742 8l1.877-1.877a.524.524 0 0 0 0-.742z"/></g></svg>