<svg width="47" height="30" xmlns="http://www.w3.org/2000/svg"><g fill="#5A6ECC"><path d="M46.236 13.85a3.234 3.234 0 0 0-1.92-1.112l-.359-4.913a.738.738 0 0 0 .718-.614l.138-.791c.149-.85-.058-1.687-.567-2.299-.509-.611-1.253-.948-2.097-.948h-5.403l.263-1.504a1.436 1.436 0 0 0-.296-1.17 1.389 1.389 0 0 0-1.075-.493H9.044c-.786 0-1.51.617-1.648 1.405l-2.353 13.46a.742.742 0 0 0 .726.871c.35 0 .66-.253.724-.613l2.353-13.46c.015-.089.128-.178.198-.178h26.502l-2.339 13.38a.742.742 0 0 0 .597.86c.4.071.782-.198.852-.602l.17-.97h8.802c.608 0 1.134.229 1.48.645.238.286.377.643.41 1.037h-2.444a.738.738 0 0 0-.724.614l-.277 1.583c-.112.638.046 1.27.432 1.734.38.458.959.72 1.586.72h.692l-.57 3.267H42.27a3.912 3.912 0 0 0-.832-1.764c-.753-.905-1.86-1.403-3.119-1.403-2.017 0-3.964 1.331-4.875 3.167h-.296l.955-5.463a.742.742 0 0 0-.597-.86.736.736 0 0 0-.853.602l-1 5.72H18.031a3.913 3.913 0 0 0-.832-1.763c-.753-.905-1.86-1.403-3.119-1.403-2.018 0-3.964 1.331-4.875 3.167H4.984l.294-1.683h3.307a.74.74 0 0 0 .736-.742.74.74 0 0 0-.736-.742H.735a.74.74 0 0 0-.735.742c0 .41.33.742.736.742h3.048l-.263 1.505c-.075.427.033.853.296 1.17.26.313.652.493 1.075.493h3.835c-.2 1.259.1 2.445.85 3.347.753.905 1.86 1.403 3.12 1.403 2.504 0 4.9-2.051 5.34-4.572.01-.06.02-.12.027-.179h14.902c-.2 1.26.1 2.446.85 3.348.753.905 1.86 1.403 3.12 1.403 2.504 0 4.9-2.051 5.34-4.572.011-.06.02-.12.027-.179h2.527a.738.738 0 0 0 .725-.613l1.384-7.918c.188-1.074-.062-2.091-.703-2.862zm-11.15-1.176l.847-4.85h6.549l.354 4.85h-7.75zm8.278-6.512l-.031.178h-7.14l.294-1.682h5.662c.401 0 .745.148.97.417.231.28.319.665.245 1.087zM16.588 25.164c-.322 1.845-2.068 3.346-3.892 3.346-.816 0-1.523-.31-1.991-.873-.482-.58-.665-1.366-.517-2.215.322-1.845 2.068-3.345 3.892-3.345.816 0 1.523.31 1.991.873.482.579.666 1.365.517 2.214zm24.24 0c-.323 1.845-2.07 3.346-3.893 3.346-.816 0-1.523-.31-1.991-.873-.482-.58-.665-1.366-.517-2.215.322-1.845 2.069-3.345 3.892-3.345.816 0 1.523.31 1.991.872.482.58.666 1.366.517 2.215zm4.215-6.155h-.952c-.197 0-.355-.066-.459-.19-.107-.13-.146-.315-.11-.523l.17-.97h1.645l-.294 1.683z"/><path d="M14.601 24.252a1.389 1.389 0 0 0-1.075-.493c-.786 0-1.51.617-1.648 1.405-.074.427.034.854.297 1.17.26.313.652.493 1.075.493.786 0 1.51-.617 1.648-1.405a1.435 1.435 0 0 0-.297-1.17zm24.239 0a1.39 1.39 0 0 0-1.074-.493c-.787 0-1.51.617-1.648 1.405-.075.427.033.854.296 1.17.26.313.652.493 1.075.493.786 0 1.51-.617 1.648-1.405a1.435 1.435 0 0 0-.297-1.17zm-9.155-3.66H20.36a.74.74 0 0 0-.736.742c0 .41.33.743.736.743h9.325a.74.74 0 0 0 .736-.743.74.74 0 0 0-.736-.742zm-13.25-3.167H2.859a.74.74 0 0 0-.735.742c0 .41.329.743.735.743h13.576a.74.74 0 0 0 .736-.743.74.74 0 0 0-.736-.742zm14.053-2.986l-2.724-2.376a.732.732 0 0 0-1.038.076.747.747 0 0 0 .075 1.047l1.23 1.072H9.37a.74.74 0 0 0-.737.742c0 .41.33.743.736.743h18.193l-1.517 1.014a.746.746 0 0 0-.207 1.029.733.733 0 0 0 1.02.208l3.554-2.375a.745.745 0 0 0 .075-1.18z"/></g></svg>