<svg width="30" height="32" xmlns="http://www.w3.org/2000/svg"><path d="M17.895 11.2c0 .32.21.533.526.533h5.263c.316 0 .527-.213.527-.533 0-.32-.211-.533-.527-.533h-5.263c-.316 0-.526.213-.526.533zm3.158 3.2c0 .32.21.533.526.533h3.158c.316 0 .526-.213.526-.533 0-.32-.21-.533-.526-.533h-3.158c-.316 0-.526.213-.526.533zm-.527-5.867c.316 0 .527-.213.527-.533 0-.32-.21-.533-.527-.533h-1.052c-.316 0-.527.213-.527.533 0 .32.21.533.527.533h1.052zM13.684 14.4c0 .32.21.533.527.533h5.263c.315 0 .526-.213.526-.533 0-.32-.21-.533-.526-.533H14.21c-.316 0-.527.213-.527.533zm3.158 14.4h-10c-.895 0-1.579-.693-1.579-1.6V2.667c0-.32-.21-.534-.526-.534-1.474 0-2.632 1.174-2.632 2.667 0 .32.21.533.527.533.315 0 .526-.213.526-.533 0-.693.42-1.28 1.053-1.493V27.2c0 1.493 1.157 2.667 2.631 2.667h10c.316 0 .526-.214.526-.534 0-.32-.21-.533-.526-.533zM8.947 11.733h7.369c.316 0 .526-.213.526-.533 0-.32-.21-.533-.526-.533H8.947c-.315 0-.526.213-.526.533 0 .267.21.533.526.533zm0-3.2h2.106c.315 0 .526-.213.526-.533 0-.32-.21-.533-.526-.533H8.947c-.315 0-.526.213-.526.533 0 .267.21.533.526.533zm8.421-1.066h-4.21c-.316 0-.526.213-.526.533 0 .32.21.533.526.533h4.21c.316 0 .527-.213.527-.533 0-.32-.21-.533-.527-.533zM24.737 0h-20C2.105 0 0 2.133 0 4.8c0 1.707.895 3.307 2.368 4.16.264.16.58.053.737-.213.106-.267.053-.587-.21-.747-1.158-.64-1.842-1.867-1.842-3.2 0-2.08 1.631-3.733 3.684-3.733h20c2.052 0 3.684 1.653 3.684 3.733v22.4c0 .267-.053.533-.21.8-.158.267-.053.587.21.747a.47.47 0 0 0 .263.053.626.626 0 0 0 .474-.267c.21-.426.368-.853.368-1.333V4.8c-.052-2.667-2.158-4.8-4.79-4.8zm1.579 24.533c0-1.76-1.421-3.2-3.158-3.2-1.737 0-3.158 1.44-3.158 3.2 0 1.76 1.421 3.2 3.158 3.2 1.737 0 3.158-1.44 3.158-3.2zm-3.158 2.134c-1.158 0-2.105-.96-2.105-2.134 0-1.173.947-2.133 2.105-2.133s2.105.96 2.105 2.133c0 1.174-.947 2.134-2.105 2.134zm-.947 1.6c-.264-.16-.58-.054-.737.213l-1.158 1.973-.158-.266a.477.477 0 0 0-.421-.214h-.316l1.158-2.026c.158-.267.053-.587-.21-.747-.264-.16-.58-.053-.737.213l-1.58 2.774a.49.49 0 0 0 0 .533c.106.16.264.267.422.267l.894.053.527.747c.105.16.263.213.42.213.159 0 .37-.107.422-.267l1.579-2.72c.21-.266.158-.586-.105-.746zm4.42-.854c-.157-.266-.473-.32-.736-.213-.263.16-.316.48-.21.747l1.157 1.973h-.316c-.158 0-.315.107-.42.213l-.159.267-1.105-1.973c-.158-.267-.474-.32-.737-.214-.263.16-.316.48-.21.747l1.579 2.72c.105.16.263.267.42.267.159 0 .317-.107.422-.214l.526-.746.895-.054c.158 0 .368-.106.42-.266a.49.49 0 0 0 0-.534l-1.525-2.72zM8.948 14.933h3.158c.316 0 .527-.213.527-.533 0-.32-.21-.533-.527-.533H8.947c-.315 0-.526.213-.526.533 0 .267.21.533.526.533zm0 3.2h6.316c.316 0 .526-.213.526-.533 0-.32-.21-.533-.526-.533H8.947c-.315 0-.526.213-.526.533 0 .267.21.533.526.533zM9 24.747c.105.266.421.373.684.213.263-.107.369-.427.21-.693-.526-1.067-.63-2.027-.315-2.56.158-.267.474-.427.895-.427.263 0 .368.107.42.16.37.587 0 2.293-.368 3.36-.105.213 0 .48.21.64.211.16.475.107.632-.053.21-.214.474-.48.685-.64v.32c0 .213.105.426.315.48.21.106.421.053.58-.107a6.86 6.86 0 0 1 .736-.64v.053c-.105.16-.052.374 0 .534.105.16.263.266.421.266h2.106c.315 0 .526-.213.526-.533 0-.32-.21-.533-.526-.533h-1.369c.053-.267.053-.534-.105-.747 0-.267-.263-.373-.526-.373-.316 0-.685.213-1.053.426-.053-.213-.158-.426-.369-.533-.157-.053-.315-.16-.736.107.158-.907.21-1.974-.21-2.614-.264-.266-.632-.586-1.317-.586-.79 0-1.42.32-1.79.906-.525.907-.42 2.187.264 3.574zM23.158 17.6c0-.32-.21-.533-.526-.533h-5.264c-.315 0-.526.213-.526.533 0 .32.21.533.526.533h5.264a.531.531 0 0 0 .526-.533z" fill="#5A6ECC"/></svg>