<svg width="20" height="20" xmlns="http://www.w3.org/2000/svg"><path d="M2 2v5h4.997L7 2H2zm5 7H2C.897 9 0 8.103 0 7V2C0 .898.897 0 2 0h5c1.103 0 2 .898 2 2v5c0 1.103-.897 2-2 2zm6-7v5h4.997L18 2h-5zm5 7h-5c-1.103 0-2-.897-2-2V2c0-1.102.897-2 2-2h5c1.103 0 2 .898 2 2v5c0 1.103-.897 2-2 2zM2 13v5h4.997L7 13H2zm5 7H2c-1.103 0-2-.897-2-2v-5c0-1.102.897-2 2-2h5c1.103 0 2 .898 2 2v5c0 1.103-.897 2-2 2zm6-7v5h4.997L18 13h-5zm5 7h-5c-1.103 0-2-.897-2-2v-5c0-1.102.897-2 2-2h5c1.103 0 2 .898 2 2v5c0 1.103-.897 2-2 2z" fill="#E4E4E4" fill-rule="evenodd"/></svg>