<svg width="53" height="48" xmlns="http://www.w3.org/2000/svg"><g fill="#5A6ECC"><path d="M50.06 11.729A9.991 9.991 0 0 0 42.962 8.8a9.991 9.991 0 0 0-7.098 2.929 9.916 9.916 0 0 0-2.94 7.071 9.916 9.916 0 0 0 2.94 7.071 9.991 9.991 0 0 0 7.098 2.929 9.991 9.991 0 0 0 7.098-2.929A9.916 9.916 0 0 0 53 18.8a9.916 9.916 0 0 0-2.94-7.071zm-2.393 1.37l.44-1.827a9.146 9.146 0 0 1 3.664 5.076l-.231.045a.906.906 0 0 0-.708.668l-.09.36c0 .004-.001.007-.008.01-.006.001-.008 0-.012-.003l-.535-.4a.912.912 0 0 0-.963-.077l-.669.348a.89.89 0 0 0-.483.855c.022.36.246.662.585.788l.032.012c.004.002.006.003.008.01.002.006 0 .008-.003.01l-.416.478a.013.013 0 0 1-.017.002l-1.122-.721a.905.905 0 0 0-1.384.612l-.087.527a.898.898 0 0 0 .275.804l.585.546a.013.013 0 0 1 .002.016l-.954 1.44a.9.9 0 0 0-.148.461l-.083 2.062a.013.013 0 0 1-.004.009l-1.27 1.24a.013.013 0 0 1-.016.002l-.824-.48a.013.013 0 0 1-.006-.009s-.4-1.806-.414-1.846l-.364-.972a.909.909 0 0 0-.77-.583l-1.662-.144a.013.013 0 0 1-.01-.007l-.946-1.624a.013.013 0 0 1-.001-.009l.237-1.575c0-.004.003-.007.005-.009l1.453-1.091a.013.013 0 0 1 .012-.002l1.408.585a.91.91 0 0 0 .25.064l1.95.211a.906.906 0 0 0 .624-.163l1.292-.923a.903.903 0 0 0 .299-1.1l-.12-.267a.902.902 0 0 0-.777-.533l-3.626-.198-.006-.001-.006-.004a.026.026 0 0 1 .002-.017l.007-.003 1.089-.292a.909.909 0 0 0 .386-.215l1.33-1.252a.013.013 0 0 1 .008-.003l2.004-.206a.905.905 0 0 0 .788-.686zm-6.788-.735l.75-1.404c.11-.208.145-.45.097-.68l-.101-.493a9.209 9.209 0 0 1 2.686.001s-.108.117-.126.124l-1.061.424a1.018 1.018 0 0 0-.394.282l-1.653 1.925a.126.126 0 0 1-.19 0c-.059-.065-.014-.168-.008-.179zm-3.9-.45v1.334c0 .372-.187.715-.5.918l-.961.62a1.978 1.978 0 0 0-.56.546l-.873 1.273a9.119 9.119 0 0 1 2.895-4.691zm.584 13.12l-.127 1.02a9.15 9.15 0 0 1-3.126-4.301h.568c.07 0 .134.035.171.093l1.148 1.782c.052.08.113.153.184.217l1.117 1.015a.204.204 0 0 1 .065.174zm5.4 2.877a9.116 9.116 0 0 1-4.697-1.296l.182-1.472a1.091 1.091 0 0 0-.35-.94s-1.14-1.04-1.15-1.055L35.8 21.366a1.092 1.092 0 0 0-.922-.502h-.825a9.074 9.074 0 0 1-.234-2.293l1.875-2.737a1.1 1.1 0 0 1 .31-.302l.96-.62c.568-.368.908-.99.908-1.664v-2.014a9.12 9.12 0 0 1 2.877-1.275l.103.5a.124.124 0 0 1-.012.084l-.749 1.404a2.2 2.2 0 0 0-.107.318 1.012 1.012 0 0 0 .997 1.21c.014 0 .446.021.774-.354l1.653-1.925a.125.125 0 0 1 .048-.035l1.061-.423c.15-.06.287-.157.393-.28l.4-.464a9.109 9.109 0 0 1 2.004.794c-.01.024-.515 2.102-.515 2.102a.013.013 0 0 1-.011.01l-2.004.206a.911.911 0 0 0-.529.24l-1.331 1.252a.012.012 0 0 1-.006.003l-1.088.293a.9.9 0 0 0 .186 1.77l3.626.199c.005 0 .01.003.011.007l.12.267a.013.013 0 0 1-.004.016l-1.292.922a.012.012 0 0 1-.008.002l-1.953-.211-1.407-.585a.911.911 0 0 0-.894.112l-1.452 1.092a.896.896 0 0 0-.35.585l-.238 1.576c-.03.202.01.41.112.587l.946 1.624c.148.254.411.42.705.446l1.662.144c.005 0 .01.004.011.009l.364.973.379 1.724a.91.91 0 0 0 .426.586l.824.48a.905.905 0 0 0 1.091-.134l1.27-1.24a.897.897 0 0 0 .271-.608l.083-2.062c0-.003 0-.005.002-.007l.954-1.44a.897.897 0 0 0-.137-1.155l-.585-.546a.013.013 0 0 1-.004-.011l.086-.527c.001-.005.001-.007.008-.01.006-.003.008-.001.012 0l1.122.722c.376.242.88.17 1.174-.166l.416-.477a.9.9 0 0 0-.365-1.436l-.031-.012-.006-.002c-.003-.004-.003-.014-.002-.017l.006-.004.669-.349a.013.013 0 0 1 .013.001l.536.4a.906.906 0 0 0 1.422-.504l.09-.36a.013.013 0 0 1 .01-.01l.26-.05c.091.515.139 1.045.139 1.585 0 5.024-4.103 9.111-9.146 9.111zM28.464 11.85l-2.105-.356a11.89 11.89 0 0 0-.846-2.043l1.24-1.736a1.848 1.848 0 0 0-.2-2.388l-1.868-1.868a1.84 1.84 0 0 0-2.381-.2l-1.742 1.24a11.766 11.766 0 0 0-2.118-.87l-.351-2.081A1.851 1.851 0 0 0 16.263 0h-2.639c-.908 0-1.68.652-1.83 1.548l-.363 2.13a11.58 11.58 0 0 0-2.037.86L7.671 3.295a1.84 1.84 0 0 0-1.078-.344 1.83 1.83 0 0 0-1.31.545L3.409 5.365a1.855 1.855 0 0 0-.2 2.387l1.253 1.761c-.345.658-.62 1.341-.833 2.05l-2.081.35A1.851 1.851 0 0 0 0 13.744v2.639c0 .909.652 1.68 1.548 1.83l2.13.363c.22.702.508 1.385.86 2.037L3.302 22.33a1.848 1.848 0 0 0 .2 2.388l1.868 1.867a1.84 1.84 0 0 0 2.381.201l1.761-1.253a11.86 11.86 0 0 0 1.98.814l.352 2.106a1.85 1.85 0 0 0 1.83 1.548h2.644c.909 0 1.68-.652 1.83-1.548l.357-2.106a11.89 11.89 0 0 0 2.043-.846l1.736 1.241c.314.226.69.345 1.078.345a1.84 1.84 0 0 0 1.31-.545l1.867-1.868c.64-.64.727-1.648.201-2.388l-1.24-1.742c.344-.658.632-1.341.845-2.043l2.106-.35A1.851 1.851 0 0 0 30 16.32v-2.64a1.829 1.829 0 0 0-1.536-1.83zm-.144 4.47c0 .08-.056.15-.138.162l-2.632.439a.841.841 0 0 0-.677.62 10.032 10.032 0 0 1-1.09 2.626.847.847 0 0 0 .038.921l1.548 2.181a.17.17 0 0 1-.02.213l-1.867 1.868a.16.16 0 0 1-.119.05.154.154 0 0 1-.094-.031l-2.174-1.548a.847.847 0 0 0-.922-.038 9.997 9.997 0 0 1-2.626 1.09.832.832 0 0 0-.62.677l-.445 2.633a.162.162 0 0 1-.163.137h-2.638a.162.162 0 0 1-.163-.137l-.439-2.633a.841.841 0 0 0-.62-.676 10.417 10.417 0 0 1-2.57-1.053.867.867 0 0 0-.426-.113c-.17 0-.345.05-.489.157l-2.193 1.56a.186.186 0 0 1-.094.031.168.168 0 0 1-.12-.05L4.7 23.54a.17.17 0 0 1-.019-.213l1.542-2.162a.858.858 0 0 0 .038-.928 9.938 9.938 0 0 1-1.103-2.62.858.858 0 0 0-.677-.62l-2.651-.451a.162.162 0 0 1-.138-.163v-2.639c0-.081.056-.15.138-.162l2.613-.44a.847.847 0 0 0 .683-.626 10.05 10.05 0 0 1 1.072-2.632.837.837 0 0 0-.044-.915l-1.56-2.193a.17.17 0 0 1 .018-.213L6.48 4.694a.16.16 0 0 1 .12-.05.15.15 0 0 1 .093.031l2.162 1.542c.276.194.64.207.928.037a9.938 9.938 0 0 1 2.62-1.103.858.858 0 0 0 .62-.676l.45-2.651a.162.162 0 0 1 .164-.138h2.638c.082 0 .15.056.163.138l.439 2.613c.056.332.3.602.627.683.946.238 1.848.608 2.688 1.103.288.17.646.157.921-.037l2.162-1.555a.186.186 0 0 1 .094-.031.17.17 0 0 1 .12.05l1.867 1.868a.17.17 0 0 1 .019.213l-1.548 2.174a.847.847 0 0 0-.038.922c.49.82.853 1.704 1.09 2.625.082.326.352.57.678.62l2.632.446a.162.162 0 0 1 .138.163v2.638h-.007z"/><path d="M15.5 9A6.504 6.504 0 0 0 9 15.5c0 3.587 2.913 6.5 6.5 6.5s6.5-2.913 6.5-6.5S19.087 9 15.5 9zm0 11.301a4.804 4.804 0 0 1-4.801-4.801 4.804 4.804 0 0 1 4.801-4.801 4.804 4.804 0 0 1 4.801 4.801 4.804 4.804 0 0 1-4.801 4.801zm23.529 14.626l-1.52-.257a8.537 8.537 0 0 0-.612-1.47l.896-1.249a1.326 1.326 0 0 0-.145-1.718L36.3 28.889a1.331 1.331 0 0 0-1.72-.144l-1.258.893c-.489-.257-1-.47-1.53-.627l-.253-1.497a1.336 1.336 0 0 0-1.322-1.114H28.31c-.656 0-1.213.469-1.321 1.114l-.263 1.533c-.507.158-1 .365-1.471.618l-1.245-.893a1.332 1.332 0 0 0-.778-.248c-.358 0-.698.14-.946.392l-1.354 1.344a1.331 1.331 0 0 0-.145 1.718l.906 1.267a8.339 8.339 0 0 0-.602 1.475l-1.503.252a1.334 1.334 0 0 0-1.118 1.317v1.899c0 .653.47 1.208 1.118 1.316l1.539.262c.158.505.366.996.62 1.465l-.892 1.236A1.326 1.326 0 0 0 21 44.185l1.349 1.344a1.331 1.331 0 0 0 1.72.144l1.272-.902c.457.24.937.433 1.43.587l.254 1.515a1.336 1.336 0 0 0 1.321 1.114h1.91c.657 0 1.214-.47 1.322-1.114l.258-1.515a8.606 8.606 0 0 0 1.476-.61l1.254.894c.226.162.498.248.778.248.358 0 .693-.14.946-.393l1.35-1.343c.461-.46.524-1.186.144-1.719l-.896-1.253c.249-.474.457-.965.611-1.47l1.52-.253a1.334 1.334 0 0 0 1.119-1.316v-1.899a1.317 1.317 0 0 0-1.11-1.317zm-.104 3.216c0 .058-.04.108-.1.117l-1.9.315a.607.607 0 0 0-.49.447 7.204 7.204 0 0 1-.787 1.89.608.608 0 0 0 .027.662l1.118 1.57a.122.122 0 0 1-.014.153L35.43 44.64a.115.115 0 0 1-.086.036.111.111 0 0 1-.067-.023l-1.571-1.114a.614.614 0 0 0-.666-.027 7.261 7.261 0 0 1-1.896.785.6.6 0 0 0-.448.487l-.322 1.894a.117.117 0 0 1-.117.099H28.35a.117.117 0 0 1-.118-.1l-.317-1.893a.606.606 0 0 0-.448-.487 7.54 7.54 0 0 1-1.856-.758.628.628 0 0 0-.307-.08.598.598 0 0 0-.353.112l-1.585 1.123a.135.135 0 0 1-.068.022.122.122 0 0 1-.086-.036l-1.348-1.344a.122.122 0 0 1-.014-.153l1.113-1.556c.14-.198.15-.46.028-.667a7.136 7.136 0 0 1-.797-1.885.619.619 0 0 0-.489-.446l-1.915-.325a.117.117 0 0 1-.1-.117v-1.899c0-.058.042-.108.1-.117l1.888-.316a.611.611 0 0 0 .493-.45 7.196 7.196 0 0 1 .774-1.895.6.6 0 0 0-.031-.658l-1.127-1.578a.122.122 0 0 1 .013-.154l1.35-1.343a.115.115 0 0 1 .085-.036c.027 0 .05.009.068.022l1.562 1.11a.62.62 0 0 0 .67.026 7.193 7.193 0 0 1 1.892-.793.618.618 0 0 0 .448-.487l.326-1.908a.117.117 0 0 1 .117-.099h1.906c.059 0 .109.04.118.1l.316 1.88a.61.61 0 0 0 .453.491 7.363 7.363 0 0 1 1.942.794.614.614 0 0 0 .665-.027l1.562-1.119a.135.135 0 0 1 .068-.022.12.12 0 0 1 .086.036l1.349 1.344c.04.04.045.104.013.153l-1.118 1.565a.607.607 0 0 0-.027.663c.353.59.616 1.226.788 1.89a.6.6 0 0 0 .489.446l1.9.32c.06.009.1.058.1.117v1.899h-.004z"/><path d="M29.306 32.533c-2.58 0-4.676 2.088-4.676 4.658 0 2.57 2.096 4.658 4.676 4.658s4.676-2.088 4.676-4.658c0-2.57-2.096-4.658-4.676-4.658zm0 8.099a3.45 3.45 0 0 1-3.454-3.441 3.45 3.45 0 0 1 3.454-3.44 3.45 3.45 0 0 1 3.454 3.44 3.45 3.45 0 0 1-3.454 3.44z"/></g></svg>