<svg width="21" height="14" xmlns="http://www.w3.org/2000/svg"><path d="M21 1.774c0-.456-.177-.869-.46-1.184-.005-.006-.006-.013-.01-.02-.005-.005-.012-.007-.017-.012A1.75 1.75 0 0 0 19.235 0H1.765C1.261 0 .808.216.486.558.482.563.475.565.47.57.465.577.464.585.46.591.176.905 0 1.318 0 1.774v10.452c0 .467.184.89.48 1.207.005.006.007.015.013.02l.007.006c.321.332.768.54 1.265.54h17.47c.496 0 .944-.208 1.265-.54l.007-.006c.006-.005.008-.013.014-.02.295-.316.48-.74.48-1.207V1.774H21zm-6.874 4.673l6.052-5.103c.06.131.094.276.094.43v10.452c0 .139-.028.27-.077.392l-6.069-6.171zm5.11-5.716c.151 0 .295.035.426.095L10.5 8.551 1.338.826c.13-.06.274-.095.427-.095h17.47zM.804 12.617a1.04 1.04 0 0 1-.078-.39V1.773c0-.154.036-.299.095-.43l6.052 5.103-6.07 6.17zm.96.651c-.168 0-.325-.044-.465-.115l6.133-6.234 2.833 2.39a.362.362 0 0 0 .468 0l2.833-2.39 6.133 6.234c-.14.071-.297.115-.465.115H1.765z" fill="#5A6ECC"/></svg>