<svg width="847" height="186" xmlns="http://www.w3.org/2000/svg" xmlns:xlink="http://www.w3.org/1999/xlink"><defs><path id="a" d="M.994.968h19.422v18.218H.994z"/><path id="c" d="M.916.968h20.16v18.218H.916z"/></defs><g fill="none" fill-rule="evenodd"><path d="M584.606 171.57s-44.105-2.463-34.534-38.814" stroke="#2A4074" stroke-width="5"/><path d="M591.072 181.626c-2.712-1.1-4.752-3.722-3.972-7.427 1.001-4.747 5.521-6.003 9.054-4.73a8.859 8.859 0 0 0-6.2-4.912 8.887 8.887 0 0 0-10.529 6.865 8.884 8.884 0 0 0 6.865 10.526 8.822 8.822 0 0 0 4.782-.322M487.97 8.842c-.49 2.886.67 5.999 4.232 7.281 4.565 1.645 8.009-1.54 8.782-5.214a8.866 8.866 0 0 1 .923 7.856c-1.665 4.618-6.757 7.014-11.375 5.349a8.886 8.886 0 0 1-5.35-11.372 8.82 8.82 0 0 1 2.789-3.9" fill="#2D2A44"/><path d="M494.307 20.322s-21.067 55.686 7.934 70.544" stroke="#2A4074" stroke-width="5"/><path d="M582.005 8.842c.49 2.886-.67 5.999-4.231 7.281-4.565 1.645-8.01-1.54-8.782-5.214a8.866 8.866 0 0 0-.923 7.856c1.665 4.618 6.757 7.014 11.375 5.349a8.886 8.886 0 0 0 5.349-11.372 8.82 8.82 0 0 0-2.788-3.9" fill="#2D2A44"/><path d="M292 9.101h196" fill="#F6FEFF"/><path d="M0 9.032h486" stroke="#5A6ECC" stroke-width="3"/><g transform="translate(482 -.968)"><mask id="b" fill="#fff"><use xlink:href="#a"/></mask><path fill="#5A6ECC" mask="url(#b)" d="M17.495 1.008v1.908h-6.064L6.535 7.719l-5.54.418.05 4.018 5.553.617 5.073 4.724h6.056v1.69l2.69-.036V.968z"/></g><path d="M573 5.631a.97.97 0 0 1-.97.97h-13.06a.97.97 0 0 1-.97-.97v-.06a.97.97 0 0 1 .97-.97h13.06a.97.97 0 0 1 .97.97v.06zm0 7a.97.97 0 0 1-.97.97h-13.06a.97.97 0 0 1-.97-.97v-.06a.97.97 0 0 1 .97-.97h13.06a.97.97 0 0 1 .97.97v.06z" fill="#2A4074"/><path d="M792 9.101H581" fill="#5A6ECC"/><path d="M847 9.032H581" stroke="#5A6ECC" stroke-width="3"/><g transform="translate(565 -.968)"><mask id="d" fill="#fff"><use xlink:href="#c"/></mask><path fill="#5A6ECC" mask="url(#d)" d="M3.947 1.008v1.908h6.295l5.083 4.803 5.751.418-.053 4.018-5.763.617-5.266 4.724H3.707v1.69l-2.79-.036V.968z"/></g><path d="M497.25 175.876s42.972-10.238 27.111-44.317" stroke="#2A4074" stroke-width="5"/><path d="M485.586 174.913c2.306-1.804 5.596-2.265 8.418.26 3.617 3.234 2.453 7.777-.412 10.206a8.868 8.868 0 0 0 7.35-2.925 8.888 8.888 0 0 0-13.25-11.848 8.84 8.84 0 0 0-2.106 4.307m48.112-137.312l6.44 47H528.01l4.924-47z" fill="#2D2A44"/><path d="M544.81 48.101c0 6.558-5.316 11.874-11.874 11.874-6.557 0-11.873-5.316-11.873-11.874 0-6.558 5.316-11.874 11.873-11.874 6.558 0 11.874 5.316 11.874 11.874" fill="#2A4074"/><path d="M541.552 48.101c0 4.875-3.857 8.828-8.616 8.828-4.76 0-8.617-3.953-8.617-8.828s3.857-8.829 8.617-8.829c4.759 0 8.616 3.954 8.616 8.83" fill="#EEE8E0"/><path d="M532.936 39.273c-.457 0-.9.046-1.338.117 8.058 2.56 7.28 16.276-2.32 16.696a8.382 8.382 0 0 0 3.658.844c4.758 0 8.615-3.953 8.615-8.828 0-4.876-3.857-8.83-8.615-8.83" fill="#EEE8E0"/><path d="M535.358 47.838a2.32 2.32 0 1 1-4.643 0 2.321 2.321 0 1 1 4.643 0" fill="#2A4074"/><path d="M464.331 126.91s26.433-35.39 51.435-7.321m97.458 10.057S594.22 89.77 564.213 112.41m11.456-92.088s21.067 55.686-7.934 70.544" stroke="#2A4074" stroke-width="5"/><path d="M555.443 90.866a8.864 8.864 0 0 0 8.864 8.865 8.864 8.864 0 0 0 8.865-8.865 8.865 8.865 0 1 0-17.729 0M452.375 126.74c2.416-1.651 5.73-1.902 8.385.798 3.404 3.458 1.952 7.918-1.063 10.158a8.869 8.869 0 0 0 7.522-2.45 8.89 8.89 0 0 0 .1-12.57 8.886 8.886 0 0 0-12.569-.098 8.839 8.839 0 0 0-2.375 4.163m103.068-13.618a8.864 8.864 0 0 0 8.864 8.865 8.864 8.864 0 0 0 8.865-8.865 8.865 8.865 0 1 0-17.729 0m-56.171-22.257a8.866 8.866 0 1 0 17.73-.001 8.866 8.866 0 0 0-17.73 0m0 22.258a8.866 8.866 0 1 0 17.73-.001 8.866 8.866 0 0 0-17.73 0m39.213 15.898a8.864 8.864 0 0 0 8.865 8.865 8.864 8.864 0 0 0 8.865-8.865 8.865 8.865 0 0 0-8.865-8.866 8.865 8.865 0 0 0-8.865 8.866m-22.256 0a8.865 8.865 0 0 0 8.865 8.865 8.865 8.865 0 0 0 8.864-8.865 8.865 8.865 0 1 0-17.73 0" fill="#2D2A44"/><path fill="#5A6ECC" d="M564 129.601h-56.073l-1.693-53.356L564 72.86z"/><path d="M584.291 11.607h-2.368c-.437 1.919-1.726 3.644-4.15 4.517-4.564 1.644-8.008-1.54-8.781-5.215a8.868 8.868 0 0 0-.923 7.857 8.888 8.888 0 1 0 16.222-7.159m32.945 127.063c-2.246-1.877-3.386-4.997-1.506-8.285 2.405-4.214 7.092-4.026 10.066-1.733a8.868 8.868 0 0 0-4.399-6.574c-4.26-2.434-9.69-.951-12.126 3.312a8.89 8.89 0 0 0 3.313 12.124 8.83 8.83 0 0 0 4.652 1.157" fill="#2D2A44"/><path fill="#F4CC37" d="M529.016 82.601h14.666l-7.333 19h8.46l-11.89 20.233 1.528-14.024-6.4-.007z"/><path d="M485.685 11.607h2.368c.437 1.919 1.726 3.644 4.15 4.517 4.564 1.644 8.008-1.54 8.78-5.215a8.868 8.868 0 0 1 .924 7.857 8.888 8.888 0 1 1-16.222-7.159" fill="#2D2A44"/><path d="M617.825 141.11l2.336-28.132c3.076-.803 4.457-2.79 4.657-5.198.19-2.283-.85-4.375-1.758-5.555l-.479 5.776-6.977-.58.502-6.048c-2.077.845-3.519 2.884-3.726 5.376-.218 2.641.858 5.004 3.771 6.173l-2.29 27.581c-3.066.673-4.517 2.825-4.737 5.468-.206 2.49.88 4.74 2.79 5.915l.464-5.598 6.975.58-.442 5.324c1.088-1.014 2.46-2.904 2.65-5.189.2-2.406-.835-4.595-3.736-5.894M443.67 105.597l11.09 22.62 2.417-1.183-11.09-22.623a1.643 1.643 0 0 0 .28-1.845l-2.58-5.263-4.328 2.123 2.58 5.262c.31.632.97.97 1.63.91" fill="#5A6ECC"/><path fill="#F6FEFF" d="M463.62 125.673l-13.289 6.515-1.149-2.345 13.288-6.515z"/><path fill="#5A6ECC" d="M471.316 147.106l-8.676 4.254-10.347-21.104 8.676-4.255z"/><path d="M467.318 122.677c-3.436-3.493-8.232-3.664-11.73-.238.714.819.974 1.818 1.12 2.905a3.83 3.83 0 0 1 1.127.15.928.928 0 0 1 .276-.287l-.026-.034c.694-.377 1.274-.984 1.9-1.463.498-.38 1.003-.707 1.562-.465.156-.409.736-.678 1.073-.272.037.046.061.094.094.139l.007-.006c.066.103.14.203.218.297.003.002.004.006.007.01.622-.026 1.212.629.917 1.163l.032.077a.573.573 0 0 1 .04.313c.067.555-.146 1.014-.697 1.474-.54.453-.867.434-1.434.879.212.44.354 1.109.806 2.144 1.321 3-.486 6.43-2.913 8.233a8.868 8.868 0 0 0 7.522-2.45 8.89 8.89 0 0 0 .1-12.57m147.499 10.756a6.372 6.372 0 0 1-.083-1.109 13.972 13.972 0 0 1-.112-1.005c-.013-.1-.015-.206-.024-.308-1.258-2.786-.927-6.55-.729-9.533a8.846 8.846 0 0 0-4.599 3.912 8.889 8.889 0 0 0 3.313 12.124 8.83 8.83 0 0 0 4.652 1.157c-1.53-1.28-2.523-3.143-2.418-5.238" fill="#2D2A44"/></g></svg>