<svg width="22" height="25" xmlns="http://www.w3.org/2000/svg"><g fill="none"><path d="M4.714 0C3.85 0 3.143.703 3.143 1.563v21.875c0 .859.707 1.562 1.571 1.562H20.43c.864 0 1.571-.703 1.571-1.563V6.25L15.714 0h-11z" fill="#E2E5E7"/><path d="M17.286 6.25H22L15.714 0v4.688c0 .859.707 1.562 1.572 1.562z" fill="#B0B7BD"/><path fill="#CAD1D8" d="M22 10.938L17.286 6.25H22z"/><path d="M18.857 20.313c0 .43-.353.78-.786.78H.786a.786.786 0 0 1-.786-.78V12.5c0-.43.354-.781.786-.781H18.07c.433 0 .786.351.786.781v7.813z" fill="#F15642"/><path d="M3.425 14.802a.43.43 0 0 1 .427-.43h1.45c.818 0 1.553.543 1.553 1.585 0 .988-.735 1.538-1.552 1.538h-1.05v.825c0 .275-.175.43-.401.43a.422.422 0 0 1-.427-.43v-3.518zm.829.356v1.556h1.049c.42 0 .754-.37.754-.757 0-.437-.333-.8-.754-.8h-1.05zm3.832 3.592c-.208 0-.434-.112-.434-.387v-3.548c0-.224.226-.388.434-.388h1.438c2.871 0 2.809 4.323.057 4.323H8.086zm.396-3.56v2.798h1.042c1.697 0 1.772-2.798 0-2.798H8.482zm4.868.05v.993h1.603c.226 0 .453.225.453.443 0 .206-.227.375-.453.375H13.35v1.312a.371.371 0 0 1-.376.386c-.277 0-.446-.168-.446-.386v-3.549c0-.224.17-.387.446-.387h2.205c.277 0 .44.163.44.387 0 .2-.163.425-.44.425h-1.83z" fill="#FFF"/><path d="M18.071 21.094H3.143v.781H18.07a.786.786 0 0 0 .786-.781v-.782c0 .43-.353.782-.786.782z" fill="#CAD1D8"/></g></svg>