<svg width="30" height="30" xmlns="http://www.w3.org/2000/svg"><path d="M.947 29.989a.935.935 0 0 1-.662-1.597L28.345.332a.935.935 0 1 1 1.322 1.324L1.608 29.715a.93.93 0 0 1-.661.274M6.558 1.941a4.69 4.69 0 0 0-4.687 4.684 4.691 4.691 0 0 0 4.687 4.686 4.69 4.69 0 0 0 4.685-4.686 4.69 4.69 0 0 0-4.685-4.684zm0 11.24A6.566 6.566 0 0 1 0 6.624C0 3.01 2.943.07 6.558.07a6.564 6.564 0 0 1 6.556 6.555 6.564 6.564 0 0 1-6.556 6.557zM23.5 18.855a4.65 4.65 0 0 0-4.645 4.644 4.65 4.65 0 0 0 4.645 4.646 4.65 4.65 0 0 0 4.645-4.646 4.65 4.65 0 0 0-4.645-4.644zM23.5 30a6.509 6.509 0 0 1-6.5-6.5c0-3.584 2.917-6.5 6.5-6.5s6.5 2.916 6.5 6.5c0 3.583-2.916 6.5-6.5 6.5z" fill="#5A6ECC" fill-rule="evenodd"/></svg>