<svg width="30" height="31" xmlns="http://www.w3.org/2000/svg"><path d="M29.633 15.602c.6-.988.434-2.282-.366-3.1L28.1 11.31a1.3 1.3 0 0 1-.367-1.022l.134-1.67c.066-1.158-.634-2.214-1.734-2.554L24.6 5.587a1.214 1.214 0 0 1-.8-.716l-.633-1.533c-.467-1.056-1.6-1.669-2.7-1.464L18.9 2.18a1.243 1.243 0 0 1-1.033-.272L16.6.886c-.9-.75-2.167-.75-3.067 0l-1.266 1.022c-.3.238-.667.34-1.034.272l-1.566-.306a2.376 2.376 0 0 0-2.7 1.464l-.634 1.533a1.212 1.212 0 0 1-.8.716L4 6.064c-1.1.34-1.8 1.396-1.733 2.555l.133 1.669a1.3 1.3 0 0 1-.367 1.022L.867 12.502a2.562 2.562 0 0 0-.367 3.1l.733 1.431c.2.34.234.715.134 1.09l-.5 1.601a2.475 2.475 0 0 0 1.066 2.896l1.4.851c.334.205.534.511.6.886l.267 1.67c.2 1.158 1.133 2.01 2.3 2.077l1.6.069c.367.034.733.204.933.51l.967 1.33c.5.646 1.233.987 2 .987.333 0 .7-.068 1.033-.238l1.467-.682a1.18 1.18 0 0 1 1.067 0l1.466.682c1.034.476 2.3.17 2.967-.75l.967-1.328c.233-.307.566-.477.933-.511l1.6-.069c1.167-.068 2.1-.92 2.3-2.078l.267-1.669c.066-.375.266-.715.6-.886l1.4-.851a2.464 2.464 0 0 0 1.066-2.896l-.5-1.6a1.39 1.39 0 0 1 .134-1.091l.866-1.43zm-1.866.818a2.512 2.512 0 0 0-.234 2.078l.5 1.6c.167.58-.033 1.193-.566 1.5l-1.4.851c-.634.375-1.034.988-1.167 1.738l-.267 1.669c-.1.613-.6 1.056-1.2 1.09l-1.6.068a2.44 2.44 0 0 0-1.833.988l-.967 1.295a1.26 1.26 0 0 1-1.566.374L16 28.991a2.437 2.437 0 0 0-2.067 0l-1.466.68c-.534.273-1.2.103-1.567-.374l-.9-1.329a2.44 2.44 0 0 0-1.833-.988l-1.6-.068c-.6-.034-1.1-.477-1.2-1.09L5.1 24.187c-.133-.716-.533-1.363-1.167-1.738l-1.4-.851c-.533-.307-.733-.92-.566-1.5l.5-1.6a2.527 2.527 0 0 0-.234-2.078l-.866-1.431c-.3-.511-.234-1.192.2-1.601l1.166-1.192c.5-.511.767-1.227.734-1.942L3.333 8.55c-.033-.614.334-1.159.9-1.329l1.534-.477C6.467 6.541 7 6.03 7.3 5.348l.633-1.533c.2-.477.667-.783 1.167-.783.067 0 .167 0 .233.034l1.567.307c.7.136 1.433-.035 2-.511l1.267-1.022a1.28 1.28 0 0 1 1.6 0l1.266 1.022c.567.476 1.3.647 2 .51l1.567-.306a1.291 1.291 0 0 1 1.4.75l.633 1.532c.3.682.834 1.193 1.534 1.397l1.533.477c.567.17.933.715.9 1.329l-.033 1.669c-.067.715.2 1.43.733 1.942l1.167 1.192c.433.443.5 1.09.2 1.6l-.9 1.466zM7.533 8.653c.134 0 .3-.068.4-.17a.606.606 0 0 0 0-.852.575.575 0 0 0-.833 0 .606.606 0 0 0 0 .851c.133.103.3.17.433.17zM22.867 7.63c-3.6-3.68-9.167-4.395-13.534-1.738a.616.616 0 0 0-.2.818c.167.273.534.375.8.204 3.9-2.384 8.9-1.737 12.134 1.567A10.314 10.314 0 0 1 24.2 19.656a.591.591 0 0 0 .3.784.556.556 0 0 0 .233.034c.234 0 .434-.137.534-.375a11.56 11.56 0 0 0 .7-6.54 11.564 11.564 0 0 0-3.1-5.928zm-.834 15.227a.606.606 0 0 0 0 .852c.1.102.267.17.4.17.134 0 .3-.068.4-.17a.606.606 0 0 0 0-.852c-.2-.238-.566-.238-.8 0zM20.1 24.425a9.77 9.77 0 0 1-5.067 1.431A9.76 9.76 0 0 1 8 22.858c-2.867-2.963-3.733-7.324-2.133-11.173a.591.591 0 0 0-.3-.784.57.57 0 0 0-.767.307 11.323 11.323 0 0 0-.733 6.54 11.37 11.37 0 0 0 3.066 5.962c2.134 2.18 5 3.338 7.867 3.338 1.933 0 3.9-.51 5.667-1.6.266-.171.366-.546.2-.818a.54.54 0 0 0-.767-.205zm-8.7-2.793c.1.068.2.068.3.068.2 0 .4-.102.5-.307l5.433-9.81c.167-.273.067-.648-.233-.818-.267-.17-.633-.068-.8.238l-5.4 9.811c-.167.307-.067.682.2.818zm7.133-4.497c-1.366 0-2.466 1.124-2.466 2.521 0 1.397 1.1 2.52 2.466 2.52 1.367 0 2.467-1.123 2.467-2.52s-1.1-2.52-2.467-2.52zm0 3.816c-.7 0-1.3-.58-1.3-1.329 0-.715.567-1.329 1.3-1.329.7 0 1.3.58 1.3 1.329 0 .75-.6 1.329-1.3 1.329zM11.467 9.164C10.1 9.164 9 10.288 9 11.684c0 1.397 1.1 2.521 2.467 2.521 1.366 0 2.466-1.124 2.466-2.52 0-1.397-1.1-2.521-2.466-2.521zm0 3.85c-.7 0-1.3-.58-1.3-1.33 0-.715.566-1.328 1.3-1.328.7 0 1.3.58 1.3 1.329 0 .75-.6 1.328-1.3 1.328z" fill="#5A6ECC"/></svg>