<svg width="22" height="25" xmlns="http://www.w3.org/2000/svg"><g fill="none"><path d="M4.714 0C3.85 0 3.143.703 3.143 1.563v21.875c0 .859.707 1.562 1.571 1.562H20.43c.864 0 1.571-.703 1.571-1.563V6.25L15.714 0h-11z" fill="#E2E5E7"/><path d="M17.286 6.25H22L15.714 0v4.688c0 .859.707 1.562 1.572 1.562z" fill="#B0B7BD"/><path fill="#CAD1D8" d="M22 10.938L17.286 6.25H22z"/><path d="M18.857 20.313c0 .43-.353.78-.786.78H.786a.786.786 0 0 1-.786-.78V12.5c0-.43.354-.781.786-.781H18.07c.433 0 .786.351.786.781v7.813z" fill="#A066AA"/><path d="M2.987 14.802a.43.43 0 0 1 .426-.432h1.452c.817 0 1.552.544 1.552 1.587 0 .988-.735 1.537-1.552 1.537h-1.05v.825c0 .276-.175.431-.402.431a.422.422 0 0 1-.426-.431v-3.517zm.828.356v1.555h1.05c.42 0 .753-.368.753-.756 0-.437-.333-.8-.754-.8h-1.05zm3.403-.293c0-.226.05-.444.377-.444.225 0 .276.056.445.218l2.08 2.587v-2.424c0-.206.18-.432.395-.432.227 0 .446.226.446.432v3.517c0 .276-.17.38-.333.431-.22 0-.327-.05-.509-.218L8.04 15.908v2.412c0 .275-.17.43-.396.43a.412.412 0 0 1-.427-.43v-3.455zm8.469 3.405c-.446.368-.993.525-1.546.525-1.32 0-2.255-.75-2.255-2.237 0-1.262.986-2.242 2.311-2.242.497 0 1.043.168 1.432.55.384.374-.17.93-.546.6-.232-.226-.56-.394-.886-.394-.76 0-1.494.605-1.494 1.486 0 .925.615 1.487 1.438 1.487.383 0 .71-.113.942-.282v-.767h-.942c-.56 0-.503-.763 0-.763h1.257c.232 0 .445.176.445.37v1.33c0 .112-.05.217-.156.337z" fill="#FFF"/><path d="M18.071 21.094H3.143v.781H18.07a.786.786 0 0 0 .786-.781v-.782c0 .43-.353.782-.786.782z" fill="#CAD1D8"/></g></svg>