<svg width="30" height="30" xmlns="http://www.w3.org/2000/svg"><g fill="#5A6ECC"><path d="M21.316 3.158a3.636 3.636 0 0 0-3.632 3.631.474.474 0 1 0 .947 0 2.687 2.687 0 0 1 2.685-2.684A2.687 2.687 0 0 1 24 6.79a2.687 2.687 0 0 1-2.684 2.685.474.474 0 0 0-.474.473v2.106a.474.474 0 1 0 .947 0V10.39a3.637 3.637 0 0 0 3.158-3.6 3.636 3.636 0 0 0-3.631-3.632z"/><circle cx="21.316" cy="14.368" r="1"/><circle cx="6.158" cy="18.158" r="1.263"/><circle cx="9.947" cy="18.158" r="1.263"/><path d="M27.267 2.724A9.259 9.259 0 0 0 20.732 0c-2.474-.01-4.82.957-6.601 2.73a9.47 9.47 0 0 0-1.716 2.323h-.005A12.397 12.397 0 0 0 3.66 8.7 12.397 12.397 0 0 0 0 17.443a12.337 12.337 0 0 0 3.62 8.832A12.533 12.533 0 0 0 12.573 30h10.545a.745.745 0 0 0 .7-.478.745.745 0 0 0-.193-.825c-.343-.315-.867-.81-1.41-1.376a1.439 1.439 0 0 1-.08-1.905 12.495 12.495 0 0 0 2.812-7.836 9.448 9.448 0 0 0 2.35-1.73A9.214 9.214 0 0 0 30 9.253a9.259 9.259 0 0 0-2.733-6.53zm-.643 12.458a8.418 8.418 0 0 1-6.013 2.502h-7.09c.18-.174.378-.372.58-.582a1.883 1.883 0 0 0 .102-2.493 8.38 8.38 0 0 1-1.817-4.214.474.474 0 0 0-.94.124 9.33 9.33 0 0 0 2.023 4.69.935.935 0 0 1-.052 1.238c-.39.406-.766.762-1.019.994a.696.696 0 0 0-.188.76c.102.261.35.43.63.43h7.77a9.424 9.424 0 0 0 3.38-.62 11.547 11.547 0 0 1-2.589 6.805 2.387 2.387 0 0 0 .13 3.16c.39.408.77.78 1.085 1.077H12.573a11.592 11.592 0 0 1-8.28-3.446A11.396 11.396 0 0 1 .947 17.45c.04-6.136 4.95-11.178 11.033-11.438a9.15 9.15 0 0 0-.531 2.081.473.473 0 0 0 .47.533.472.472 0 0 0 .469-.408 8.328 8.328 0 0 1 2.41-4.815C16.39 1.818 18.479.947 20.685.947h.042c4.56.023 8.295 3.752 8.325 8.313a8.273 8.273 0 0 1-2.428 5.922z"/></g></svg>