<svg width="19" height="19" xmlns="http://www.w3.org/2000/svg"><path d="M17.585 13.275c-2.698-2.171-3.66-1.195-4.774-.064l-.2.204c-.335.334-1.15-.113-1.607-.41-.723-.471-1.629-1.25-2.693-2.314-3.257-3.26-2.906-4.119-2.72-4.304l.2-.198c1.131-1.117 2.11-2.08-.06-4.782C4.996.493 4.278.033 3.537.002 2.483-.044 1.653.813.936 1.568c-.119.124-.235.245-.348.36-.786.786-.784 2.504.006 4.599.868 2.305 2.582 4.81 4.827 7.057 2.244 2.248 4.747 3.964 7.048 4.833 1.049.396 2.003.594 2.793.594.787 0 1.41-.196 1.803-.588.112-.113.233-.227.357-.346.755-.718 1.611-1.53 1.567-2.606-.03-.743-.49-1.46-1.404-2.196zm-.603 4.338c-.128.122-.252.24-.37.357-.584.586-2.122.528-3.918-.151-2.217-.838-4.64-2.502-6.822-4.686-2.182-2.184-3.844-4.61-4.68-6.83-.678-1.799-.738-3.339-.153-3.924.117-.117.236-.243.36-.371.61-.642 1.3-1.369 2.062-1.369h.05c.539.024 1.118.417 1.722 1.168 1.807 2.25 1.168 2.881.11 3.924l-.205.202c-.846.848.019 2.503 2.721 5.209 1.096 1.096 2.037 1.903 2.797 2.398 1.1.716 1.91.826 2.406.326l.204-.206c1.042-1.056 1.67-1.696 3.919.113.751.604 1.143 1.184 1.166 1.722.032.786-.712 1.493-1.369 2.118zm-1.728-9.78a.32.32 0 0 0 .416-.175 3.324 3.324 0 0 0-4.45-4.282.32.32 0 0 0 .264.582 2.686 2.686 0 1 1 3.594 3.46.318.318 0 0 0 .176.415zm-5.038-6.682a5.784 5.784 0 0 1 6.448 1.177 5.764 5.764 0 0 1 1.265 6.248.318.318 0 0 0 .296.44.32.32 0 0 0 .296-.2 6.401 6.401 0 0 0-1.405-6.94A6.428 6.428 0 0 0 9.953.566a.32.32 0 0 0 .263.584z" fill="#5A6ECC"/></svg>