<svg xmlns="http://www.w3.org/2000/svg" viewBox="0 0 512 512"><path d="M480.6 179.6h-54C425.5 86.4 349.4 11 256 11S86.5 86.4 85.5 179.6h-54c-19.1 1.5-21.1 17.9-20.1 23.8L59 484c1.7 9.8 10.2 17 20.1 17h353.8c10 0 18.5-7.2 20.1-17l47.7-280.6c1-5.9-1.4-22.4-20.1-23.8zM256 51.8c70.9 0 128.6 57.1 129.7 127.7H126.3c1.1-70.6 58.8-127.7 129.7-127.7zm159.7 408.4H96.4L55.6 220.4h400.8l-40.7 239.8z"/><path d="M170.9 309.7H341c11.3 0 20.4-9.1 20.4-20.4s-9.1-20.4-20.4-20.4H170.9c-11.3 0-20.4 9.1-20.4 20.4s9.2 20.4 20.4 20.4zm0 102H341c11.3 0 20.4-9.1 20.4-20.4 0-11.3-9.1-20.4-20.4-20.4H170.9c-11.3 0-20.4 9.1-20.4 20.4 0 11.3 9.2 20.4 20.4 20.4z"/></svg>