<svg width="15" height="20" xmlns="http://www.w3.org/2000/svg"><path d="M13.4 14.3l-3.1-1.6c-.3-.2-.5-.5-.5-.8v-1.1c.1-.1.2-.2.2-.3.4-.6.7-1.2 1-1.9.5-.2.8-.7.8-1.2V6c0-.3-.1-.6-.3-.9V3.4c0-.2.1-1.3-.7-2.2C10.1.4 9 0 7.5 0 6 0 4.9.4 4.3 1.2c-.8.9-.7 2-.7 2.2v1.8c-.2.2-.3.5-.3.8v1.3c0 .4.2.8.5 1 .3 1.2.9 2.1 1.1 2.4v1.1c0 .3-.2.6-.4.8l-2.9 1.6c-1 .6-1.6 1.6-1.6 2.7V18c0 1.6 4.9 2 7.5 2 2.6 0 7.5-.4 7.5-2v-1c0-1.2-.6-2.2-1.6-2.7zm.9 3.7c0 .5-2.4 1.3-6.8 1.3S.7 18.5.7 18v-1.1c0-.9.5-1.6 1.2-2.1l2.9-1.6c.5-.3.8-.8.8-1.4v-1.3l-.1-.1s-.8-1-1.1-2.4v-.1h-.2c-.2-.1-.3-.3-.3-.6V6c0-.2.1-.4.2-.5l.1-.1V3.3s-.1-.9.5-1.7C5.3 1 6.2.7 7.5.7c1.3 0 2.2.3 2.7.9.6.7.5 1.7.5 1.7v2.1l.1.1c.2.1.3.3.3.5v1.3c0 .3-.2.5-.5.6l-.1.1-.1.2c-.2.7-.5 1.3-.9 1.9-.1.1-.2.3-.3.4l-.1.1V12c0 .6.3 1.1.8 1.4L13 15c.8.4 1.3 1.2 1.3 2.1v.9z" fill="#5A6ECC"/></svg>