<svg width="33" height="33" xmlns="http://www.w3.org/2000/svg"><g fill="#5A6ECC"><path d="M32.355 12.984h-1.123V7.27c0-1.06-.853-1.923-1.9-1.923h-.152l-.183-3.539a1.853 1.853 0 0 0-.604-1.282A1.808 1.808 0 0 0 27.069.05L5.112 1.214a1.85 1.85 0 0 0-1.737 1.951l.113 2.182h-.316C1.423 5.347 0 6.787 0 8.557v17.04c0 1.77 1.423 3.21 3.172 3.21h3.934c.315 2.337 2.3 4.145 4.696 4.145a4.745 4.745 0 0 0 4.274-2.723 4.7 4.7 0 0 0 3.619-1.423h9.636c1.048 0 1.9-.862 1.9-1.923v-4.642h1.124A.648.648 0 0 0 33 21.59v-7.953a.648.648 0 0 0-.645-.652zM5.18 2.516l21.957-1.162a.551.551 0 0 1 .574.523l.18 3.47H4.78l-.117-2.25a.55.55 0 0 1 .516-.58zm6.623 29.131c-1.904 0-3.452-1.567-3.452-3.493 0-1.872 1.463-3.405 3.293-3.49l-.003.02-.012.083a4.864 4.864 0 0 0-.037.375l-.004.073a4.885 4.885 0 0 0 0 .453l.006.093.01.132.013.116.013.105a4.666 4.666 0 0 0 .063.352l.018.078c.01.047.022.093.034.14l.02.072.041.14.026.075a4.787 4.787 0 0 0 .123.332l.005.012c.028.067.058.133.09.199.001.005.004.01.006.014.032.066.064.13.099.194l.002.004a4.763 4.763 0 0 0 2.094 2.026l.035.017c.061.03.124.059.187.086l.032.014.154.061.065.024.03.012a3.45 3.45 0 0 1-2.951 1.681zm4.52-2.716c-.203 0-.402-.018-.596-.053l-.109-.02a3.485 3.485 0 0 1-2.706-2.883l-.002-.01a3.56 3.56 0 0 1-.018-.149l-.004-.03a3.52 3.52 0 0 1-.01-.136l-.003-.039a3.562 3.562 0 0 1 0-.338l.004-.055a3.723 3.723 0 0 1 .053-.431l.013-.07.023-.097a3.436 3.436 0 0 1 .055-.207l.02-.063c.454-1.395 1.752-2.405 3.28-2.405 1.904 0 3.452 1.567 3.452 3.493 0 1.927-1.548 3.493-3.452 3.493zm13.62-2.048a.616.616 0 0 1-.61.619h-8.73a4.815 4.815 0 0 0 .461-2.064c0-2.645-2.127-4.797-4.74-4.797-1.881 0-3.51 1.114-4.275 2.723a4.635 4.635 0 0 0-.246-.007c-2.396 0-4.38 1.807-4.696 4.145H6.21v-7.74a.648.648 0 0 0-.644-.653.648.648 0 0 0-.645.652v7.741H3.172c-1.038 0-1.883-.855-1.883-1.905V8.557c0-1.051.845-1.906 1.883-1.906h26.159c.337 0 .612.278.612.619v5.714h-3.9c-2.521 0-4.574 2.076-4.574 4.629 0 2.552 2.052 4.628 4.575 4.628h3.899v4.642zm1.769-5.946h-5.667c-1.812 0-3.286-1.491-3.286-3.324 0-1.833 1.474-3.325 3.286-3.325h5.667v6.649z"/><path d="M26.352 15.21c-1.33 0-2.41 1.094-2.41 2.438 0 1.345 1.08 2.44 2.41 2.44 1.329 0 2.41-1.095 2.41-2.44 0-1.344-1.081-2.439-2.41-2.439zm0 3.573a1.13 1.13 0 0 1-1.121-1.135 1.13 1.13 0 0 1 1.12-1.134 1.13 1.13 0 0 1 1.122 1.134 1.13 1.13 0 0 1-1.121 1.135z"/></g></svg>